# xmcd CD database file
#
# Track frame offsets:
#	150
#	13012
#	26705
#	41547
#	55765
#	69412
#	87412
#	99082
#	117382
#	136060
#	152673
#	164898
#	177500
#	192235
#	204948
#	216610
#
# Disc length: 3110 seconds
#
# Revision: 1
# Processed by: cddbd v1.5.2PL0 Copyright (c) Steve Scherf et al.
# Submitted via: CDex 1.70beta2
#
DISCID=e00c2410
DTITLE=Acker Bilk - The Magic Clarinet Of Acker Bilk
DYEAR=1983
DGENRE=Jazz
TTITLE0=Jean
TTITLE1=We've Only Just Begun
TTITLE2=The Rose
TTITLE3=Eres Tu (Touch The Wind)
TTITLE4=Morning Has Broken
TTITLE5=You're The Best Thing That Ever Happened To Me
TTITLE6=I Left My Heart In San Francisco
TTITLE7=I Can't Stop Loving You
TTITLE8=Hey Jude
TTITLE9=The First Time Ever I Saw Your Face
TTITLE10=Ramblin' Rose
TTITLE11=If I Give My Heart To You
TTITLE12=Never My Love
TTITLE13=Stranger On The Shore
TTITLE14=Let It Be Me
TTITLE15=My Way
EXTD=YEAR: 1983
EXTT0=
EXTT1=
EXTT2=
EXTT3=
EXTT4=
EXTT5=
EXTT6=
EXTT7=
EXTT8=
EXTT9=
EXTT10=
EXTT11=
EXTT12=
EXTT13=
EXTT14=
EXTT15=
PLAYORDER=
